<svg width="233" height="75" viewBox="0 0 233 75" fill="none" xmlns="http://www.w3.org/2000/svg">
<path d="M99.3362 53.3605L90.6699 23.8755H96.9195L101.654 41.7923L102.585 47.8735H103.258L104.189 41.7923L108.834 23.8755H114.916L106.428 53.3605H99.3362Z" fill="white"/>
<path d="M121.69 53.3605V23.8755H139.944V29.1545H127.732V35.7903H138.082V41.0693H127.732V48.0815H139.944V53.3605H121.69V53.3605Z" fill="white"/>
<path d="M154.305 53.3605H148.263V23.8755H161.02C163.664 23.8755 165.685 24.7075 167.061 26.3714C168.438 28.0353 169.131 30.2538 169.131 33.0468C169.131 35.2159 168.725 37.0482 167.903 38.5338C167.081 40.0293 165.873 41.0693 164.268 41.6635L169.429 53.3704H162.882L158.316 42.2182H154.305V53.3605ZM160.267 37.1769C161.079 37.1769 161.723 36.9689 162.189 36.5629C162.654 36.1568 162.882 35.4437 162.882 34.4334V31.8979C162.882 30.8877 162.654 30.1746 162.189 29.7685C161.723 29.3625 161.079 29.1545 160.267 29.1545H154.315V37.1769H160.267V37.1769Z" fill="white"/>
<path d="M182.869 23.8657V43.0007C182.869 44.942 183.196 46.3484 183.859 47.2002C184.523 48.0618 185.711 48.4877 187.425 48.4877C189.138 48.4877 190.337 48.0618 190.99 47.2002C191.654 46.3385 191.981 44.942 191.981 43.0007V23.8657H198.022V42.1985C198.022 44.2883 197.834 46.0612 197.478 47.527C197.111 48.9928 196.517 50.2011 195.685 51.1421C194.853 52.083 193.763 52.7763 192.407 53.2121C191.05 53.6478 189.396 53.8657 187.425 53.8657C185.454 53.8657 183.79 53.6478 182.443 53.2121C181.086 52.7763 179.997 52.083 179.165 51.1421C178.333 50.2011 177.738 48.9928 177.372 47.527C177.005 46.0612 176.827 44.2883 176.827 42.1985V23.8657H182.869Z" fill="white"/>
<path d="M226.715 37.9792L227.052 33.0369H226.378L224.566 37.7216L219.663 48.4083L214.8 37.7216L212.988 33.0369H212.314L212.651 37.9792V53.3605H206.986V23.8755H213.324L217.336 32.6606L219.534 38.9597H219.96L222.159 32.6606L226.091 23.8755H232.39V53.3605H226.725V37.9792H226.715Z" fill="white"/>
<path d="M4.99544 40.6585H0C1.58611 58.678 15.992 73.0839 34.0115 74.67V69.6746C18.739 68.113 6.55703 55.931 4.99544 40.6585ZM0 34.0115H4.99544C6.55703 18.739 18.739 6.55703 34.0197 5.00362V0C15.992 1.58611 1.58611 15.992 0 34.0115ZM69.6664 34.0115H74.67C73.0839 15.992 58.678 1.58611 40.6585 0V5.00362C55.931 6.55703 68.113 18.739 69.6664 34.0115ZM40.6585 69.6664V74.6618C58.678 73.0757 73.0839 58.6699 74.67 40.6503H69.6664C68.113 55.931 55.931 68.113 40.6585 69.6664Z" fill="#2C75FF"/>
<path d="M38.5818 43.5858L37.9359 43.8801L25.5168 49.497L25.4105 49.3907L30.9946 36.9307L31.2889 36.2766L27.1193 32.1069L26.8249 32.761L18.3875 51.8434C19.017 52.661 19.7119 53.4541 20.4641 54.2062C21.2163 54.9584 22.0094 55.6452 22.8269 56.2747L41.9012 47.8536L42.5552 47.5593L38.5818 43.5858Z" fill="#2C75FF"/>
<path d="M54.2059 20.4644C53.4537 19.7122 52.6606 19.0172 51.8431 18.3877L32.7688 26.817L32.1147 27.1031L36.0882 31.0766L36.7341 30.7823L49.1532 25.1655L49.2595 25.2718L43.6836 37.7317L43.3892 38.3858L47.5589 42.5555L47.8451 41.9014L56.2825 22.8272C55.653 22.0014 54.9581 21.2165 54.2059 20.4644Z" fill="#2C75FF"/>
</svg>
